<?xml version="1.0" encoding="UTF-8"?>
<svg width="32px" height="32px" viewBox="0 0 32 32" version="1.1" xmlns="http://www.w3.org/2000/svg">
    <title>Bidwit</title>
    <g stroke="none" stroke-width="1" fill="none" fill-rule="evenodd">
        <circle fill="#4F46E5" cx="16" cy="16" r="16"/>
        <path d="M10,8 L22,8 C23.1045695,8 24,8.8954305 24,10 L24,22 C24,23.1045695 23.1045695,24 22,24 L10,24 C8.8954305,24 8,23.1045695 8,22 L8,10 C8,8.8954305 8.8954305,8 10,8 Z" fill="#FFFFFF"/>
        <path d="M14,12 L18,12 C19.1045695,12 20,12.8954305 20,14 L20,18 C20,19.1045695 19.1045695,20 18,20 L14,20 C12.8954305,20 12,19.1045695 12,18 L12,14 C12,12.8954305 12.8954305,12 14,12 Z" fill="#4F46E5"/>
    </g>
</svg> 